<svg width="211" height="211" fill="none" xmlns="http://www.w3.org/2000/svg"><path fill-rule="evenodd" clip-rule="evenodd" d="M147.359 1.806c1.767.38 2.353 2.552 1.075 3.83l-44.933 44.902a4.694 4.694 0 0 0 0 6.642l48.517 48.483a4.702 4.702 0 0 0 6.646 0l45.913-45.882c1.255-1.253 3.384-.715 3.816 1.004a80.585 80.585 0 0 1 2.42 19.654c0 44.426-36.039 80.44-80.494 80.44a80.608 80.608 0 0 1-22.112-3.073l-51.668 51.632a4.702 4.702 0 0 1-6.646 0L1.376 160.954a4.693 4.693 0 0 1 0-6.641l51.588-51.553a80.428 80.428 0 0 1-3.14-22.32C49.824 36.013 85.863 0 130.32 0a80.86 80.86 0 0 1 17.04 1.806Z" fill="#F9F9F9"/></svg>