<svg width="641" height="1080" fill="none" xmlns="http://www.w3.org/2000/svg"><path fill="#FFBA96" d="M-7.856 0h216v216h-216zM-7.856 432h216v216h-216z"/><path fill="#fff" d="M-7.856 864h216v216h-216zM208.144 216h216v216h-216z"/><path fill="#FFBA96" d="M208.144 648h216v216h-216zM208.144 864h216v216h-216zM424.144 0h216v216h-216z"/><path fill="#fff" d="M424.144 432h216v216h-216zM424.144 648h216v216h-216z"/><path fill-rule="evenodd" clip-rule="evenodd" d="M93.306 27.871a5.344 5.344 0 0 0-5.07 3.65L81.36 52.137l-.066.19a57.28 57.28 0 0 0-7.236 2.987l-.184-.089L54.44 45.51a5.35 5.35 0 0 0-6.172.996l-9.635 9.682a5.341 5.341 0 0 0-1.002 6.17l9.718 19.426.09.183a57.222 57.222 0 0 0-2.99 7.234l-.189.067-20.593 6.872a5.343 5.343 0 0 0-3.652 5.069v13.627a5.342 5.342 0 0 0 3.652 5.069l20.593 6.872.19.067a57.652 57.652 0 0 0 2.988 7.206l-.089.183-9.718 19.431a5.328 5.328 0 0 0 1.002 6.165l9.663 9.665a5.353 5.353 0 0 0 6.172 1.002l19.436-9.699.184-.089a57.998 57.998 0 0 0 7.236 2.988l.066.189 6.874 20.588a5.348 5.348 0 0 0 5.07 3.656h13.643a5.348 5.348 0 0 0 5.07-3.656l6.874-20.588c.017-.064.04-.128.067-.189a58.319 58.319 0 0 0 7.235-2.988l.184.089 19.408 9.699a5.343 5.343 0 0 0 6.167-1.002l9.668-9.665a5.33 5.33 0 0 0 1.002-6.165l-9.718-19.431c-.033-.061-.061-.122-.089-.183a58.519 58.519 0 0 0 2.989-7.195c.061-.027.124-.05.189-.067l20.594-6.872a5.348 5.348 0 0 0 3.656-5.069V101.17a5.341 5.341 0 0 0-3.656-5.07l-20.594-6.871-.189-.067a58.133 58.133 0 0 0-2.989-7.234c0-.06.056-.122.089-.183l9.718-19.43a5.343 5.343 0 0 0-1.002-6.172l-9.668-9.665a5.337 5.337 0 0 0-6.167-.968l-19.436 9.715-.184.09a57.573 57.573 0 0 0-7.235-2.989 1.586 1.586 0 0 1-.067-.189l-6.874-20.616a5.341 5.341 0 0 0-5.07-3.65H93.306Zm-13.609 80.126a20.433 20.433 0 0 0 12.62 18.882 20.444 20.444 0 0 0 27.874-14.894 20.435 20.435 0 0 0-20.05-24.425 20.444 20.444 0 0 0-18.89 12.619 20.43 20.43 0 0 0-1.554 7.824v-.006Z" fill="#fff"/><path d="M529.039 127.885H468.33c-4.243 0-6.545-4.952-3.804-8.183L536.9 34.42c1.601-1.886 4.681-.54 4.375 1.913l-6.463 51.782h60.709c4.243 0 6.546 4.952 3.804 8.183l-72.373 85.282c-1.601 1.886-4.681.539-4.375-1.913l6.462-51.782Z" fill="#fff"/><path d="M395.243 318.501a11.049 11.049 0 0 1 0 10.999l-34.805 60.42a10.977 10.977 0 0 1-9.494 5.5h-69.6a10.953 10.953 0 0 1-5.482-1.476 10.992 10.992 0 0 1-4.013-4.024l-34.805-60.42a11.052 11.052 0 0 1 0-10.999l34.805-60.421a10.97 10.97 0 0 1 4.011-4.026 10.927 10.927 0 0 1 5.484-1.473h69.569a10.923 10.923 0 0 1 5.483 1.473 10.962 10.962 0 0 1 4.011 4.026l34.836 60.421Z" fill="#F85A00"/><path d="M148.646 751.007h32.371a80.729 80.729 0 0 0-21.567-50.265 82.2 82.2 0 0 1-15.801 13.151 166.289 166.289 0 0 1 4.997 37.114ZM143.392 798.854a81.518 81.518 0 0 1 15.548 12.797 80.795 80.795 0 0 0 21.982-49.861h-32.31a165.154 165.154 0 0 1-5.22 37.064ZM136.615 817.811a74.962 74.962 0 0 1-8.477 14.162 80.825 80.825 0 0 0 22.851-12.968 70.575 70.575 0 0 0-10.975-9.398 102.186 102.186 0 0 1-3.399 8.204ZM151.539 693.307a81.02 81.02 0 0 0-23.398-13.444 74.889 74.889 0 0 1 8.477 14.162 95.358 95.358 0 0 1 3.693 9.034 69.86 69.86 0 0 0 11.228-9.752ZM69.64 804.054a89.972 89.972 0 0 0 3.692 9.186c9.458 20.231 20.475 23.62 26.412 23.741h.668c5.938-.121 16.954-3.469 26.412-23.741a95.123 95.123 0 0 0 3.693-9.186 70.41 70.41 0 0 0-60.877 0ZM130.821 708.673a96.69 96.69 0 0 0-3.995-10.055c-9.459-20.232-20.475-23.621-26.413-23.742h-.667c-5.938.121-16.954 3.47-26.413 23.742a94.608 94.608 0 0 0-3.985 10.055 70.343 70.343 0 0 0 61.473 0ZM133.59 793.564a156.03 156.03 0 0 0 4.249-31.753H62.385a156.353 156.353 0 0 0 4.198 31.702 81.188 81.188 0 0 1 67.038 0l-.031.051ZM62.325 751.058l75.514-.051a156.606 156.606 0 0 0-4.046-31.804 81.17 81.17 0 0 1-67.473 0 156.988 156.988 0 0 0-3.995 31.855ZM63.542 694.045a74.904 74.904 0 0 1 8.477-14.162 80.843 80.843 0 0 0-23.397 13.444 69.904 69.904 0 0 0 11.228 9.772 99.374 99.374 0 0 1 3.692-9.054ZM49.158 819.005a80.822 80.822 0 0 0 22.861 13.009 74.904 74.904 0 0 1-8.477-14.162 103.317 103.317 0 0 1-3.409-8.224 70.592 70.592 0 0 0-10.975 9.377ZM51.543 761.871h-32.3a80.735 80.735 0 0 0 21.972 49.76 81.53 81.53 0 0 1 15.548-12.797 165.194 165.194 0 0 1-5.22-36.963ZM56.542 713.872a81.96 81.96 0 0 1-15.8-13.15 80.74 80.74 0 0 0-21.568 50.376h32.37a166.296 166.296 0 0 1 4.998-37.226Z" fill="#fff"/><path fill-rule="evenodd" clip-rule="evenodd" d="m377.421 1020.45-42.664-124.657a6.442 6.442 0 0 0-6.097-4.356h-25.036a6.445 6.445 0 0 0-6.097 4.356l-42.664 124.657a6.43 6.43 0 0 1-2.35 3.15 6.39 6.39 0 0 1-3.747 1.21h-6.742c-1.709 0-3.348.68-4.557 1.88a6.451 6.451 0 0 0-1.888 4.56v14.86a6.451 6.451 0 0 0 6.445 6.45h148.239a6.451 6.451 0 0 0 6.445-6.45v-14.87a6.446 6.446 0 0 0-6.445-6.44h-6.745a6.447 6.447 0 0 1-6.097-4.35Z" fill="#fff"/><g clip-path="url(#a)"><path fill="#fff" d="M640.144 864h-216v216h216z"/><path fill="#F85A00" d="m386.358 553.787-27.748 27.748 567.785 567.786 27.749-27.748zM333.946 606.201l-27.748 27.748 567.785 567.786 27.749-27.748zM282.305 657.844l-27.748 27.748 567.785 567.786 27.749-27.748zM229.889 710.257l-27.748 27.748 567.785 567.786 27.749-27.748zM178.247 761.899l-27.748 27.748 567.785 567.786 27.749-27.748zM126.605 813.542 98.857 841.29l567.785 567.786 27.749-27.748zM74.193 865.956l-27.748 27.748 567.786 567.786 27.748-27.748zM22.548 917.599-5.2 945.347l567.785 567.786 27.749-27.748zM-29.864 970.012l-27.749 27.748 567.786 567.786 27.748-27.748zM-82.276 1022.42l-27.749 27.748 567.786 567.786 27.748-27.748zM-134.692 1074.84l-27.748 27.748 567.785 567.786 27.749-27.748z"/></g><mask id="b" style="mask-type:alpha" maskUnits="userSpaceOnUse" x="424" y="432" width="217" height="216"><path d="M640.144 432v216H424.143V432h216.001Z" fill="#fff"/></mask><g mask="url(#b)" fill="#FFBA96"><path d="M789.191 534.586 542.192 781.584l-24.697-24.697 246.999-246.998 24.697 24.697ZM566.9 312.275 319.901 559.273l-24.697-24.697 246.999-246.998 24.697 24.697ZM623.21 368.592 376.212 615.59l-24.697-24.697 246.998-246.998 24.697 24.697ZM679.518 424.904 432.52 671.902l-24.697-24.697 246.998-246.998 24.697 24.697ZM735.835 481.228 488.837 728.227 464.14 703.53l246.998-246.999 24.697 24.697Z"/></g><defs><clipPath id="a"><path fill="#fff" transform="matrix(-1 0 0 1 640.144 864)" d="M0 0h216v216H0z"/></clipPath></defs></svg>