<svg width="753" height="96" fill="none" xmlns="http://www.w3.org/2000/svg"><g clip-path="url(#a)"><path d="M200.968 70.73h-37.281l-7.112 17.048h-19.042l35.79-79.557h18.353l35.904 79.557h-19.5l-7.112-17.048Zm-5.85-13.979-12.733-30.46-12.733 30.46h25.466ZM269.906 89.142c-11.471 0-20.418-3.144-26.842-9.433-6.348-6.289-9.521-15.267-9.521-26.936V8.221h18.583v43.87c0 14.245 5.965 21.367 17.895 21.367 5.812 0 10.247-1.704 13.306-5.114 3.059-3.486 4.588-8.903 4.588-16.253V8.221h18.354v44.552c0 11.669-3.212 20.647-9.636 26.936-6.347 6.29-15.256 9.433-26.727 9.433ZM339.922 23.223h-25.695V8.221h69.972v15.002h-25.695v64.555h-18.582V23.223ZM431.964 89.143c-8.335 0-15.868-1.78-22.598-5.341-6.653-3.562-11.891-8.449-15.715-14.662-3.747-6.289-5.621-13.335-5.621-21.14 0-7.804 1.874-14.813 5.621-21.026 3.824-6.289 9.062-11.214 15.715-14.775 6.73-3.561 14.263-5.342 22.598-5.342 8.336 0 15.83 1.781 22.483 5.342 6.654 3.561 11.892 8.486 15.716 14.775 3.823 6.213 5.735 13.222 5.735 21.026 0 7.805-1.912 14.851-5.735 21.14-3.824 6.213-9.062 11.1-15.716 14.662-6.653 3.56-14.147 5.341-22.483 5.341Zm0-15.684c4.742 0 9.024-1.06 12.848-3.183 3.823-2.197 6.806-5.227 8.947-9.092 2.218-3.864 3.327-8.259 3.327-13.184 0-4.925-1.109-9.32-3.327-13.184-2.141-3.864-5.124-6.857-8.947-8.978-3.824-2.198-8.106-3.296-12.848-3.296-4.741 0-9.024 1.098-12.847 3.296-3.824 2.121-6.845 5.114-9.062 8.978-2.142 3.865-3.212 8.26-3.212 13.184 0 4.925 1.07 9.32 3.212 13.184 2.217 3.865 5.238 6.895 9.062 9.092 3.823 2.122 8.106 3.183 12.847 3.183ZM489.864 8.22h36.478c8.718 0 16.403 1.668 23.057 5.002 6.729 3.258 11.93 7.88 15.601 13.865 3.747 5.986 5.621 12.957 5.621 20.913 0 7.956-1.874 14.926-5.621 20.912-3.671 5.986-8.872 10.646-15.601 13.98-6.654 3.258-14.339 4.886-23.057 4.886h-36.478V8.221Zm35.56 64.442c8.03 0 14.416-2.197 19.157-6.591 4.818-4.47 7.227-10.494 7.227-18.071 0-7.577-2.409-13.563-7.227-17.958-4.741-4.47-11.127-6.705-19.157-6.705h-16.977v49.325h16.977ZM623.52 89.143c-8.335 0-15.867-1.78-22.598-5.341-6.652-3.562-11.891-8.449-15.714-14.662-3.748-6.289-5.621-13.335-5.621-21.14 0-7.804 1.873-14.813 5.621-21.026 3.823-6.289 9.062-11.214 15.714-14.775 6.731-3.561 14.263-5.342 22.598-5.342 8.336 0 15.831 1.781 22.483 5.342 6.654 3.561 11.893 8.486 15.716 14.775 3.824 6.213 5.736 13.222 5.736 21.026 0 7.805-1.912 14.851-5.736 21.14-3.823 6.213-9.062 11.1-15.716 14.662-6.652 3.56-14.147 5.341-22.483 5.341Zm0-15.684c4.742 0 9.024-1.06 12.848-3.183 3.823-2.197 6.806-5.227 8.947-9.092 2.218-3.864 3.327-8.259 3.327-13.184 0-4.925-1.109-9.32-3.327-13.184-2.141-3.864-5.124-6.857-8.947-8.978-3.824-2.198-8.106-3.296-12.848-3.296-4.741 0-9.024 1.098-12.847 3.296-3.824 2.121-6.844 5.114-9.062 8.978-2.141 3.865-3.212 8.26-3.212 13.184 0 4.925 1.071 9.32 3.212 13.184 2.218 3.865 5.238 6.895 9.062 9.092 3.823 2.122 8.106 3.183 12.847 3.183ZM719.851 89.143c-8.186 0-15.602-1.743-22.256-5.228-6.574-3.561-11.776-8.448-15.602-14.661-3.745-6.29-5.617-13.374-5.617-21.254 0-7.88 1.872-14.926 5.617-21.14 3.826-6.288 9.028-11.175 15.602-14.66 6.654-3.562 14.11-5.343 22.369-5.343 6.955 0 13.228 1.213 18.812 3.637 5.658 2.425 10.399 5.91 14.224 10.457l-11.93 10.91c-5.43-6.213-12.158-9.32-20.189-9.32-4.969 0-9.403 1.1-13.308 3.297-3.899 2.121-6.955 5.114-9.175 8.978-2.14 3.865-3.21 8.26-3.21 13.184 0 4.925 1.07 9.32 3.21 13.184 2.22 3.865 5.276 6.895 9.175 9.092 3.905 2.122 8.339 3.183 13.308 3.183 8.031 0 14.759-3.145 20.189-9.433L753 74.936c-3.825 4.622-8.566 8.146-14.224 10.57-5.658 2.425-11.97 3.637-18.925 3.637Z" fill="#fff"/><path fill-rule="evenodd" clip-rule="evenodd" d="M24.903 64.459c4.363 0 7.9 3.525 7.9 7.874V96h27.702V44.117c0-4.35-3.537-7.875-7.9-7.875H0V64.46h24.903Z" fill="#FFBA96"/><path fill-rule="evenodd" clip-rule="evenodd" d="M71.368 31.542c-4.363 0-7.9-3.526-7.9-7.875V0H35.768v51.883c0 4.35 3.536 7.875 7.899 7.875H96.27V31.542H71.368Z" fill="#fff"/></g><defs><clipPath id="a"><path fill="#fff" d="M0 0h753v96H0z"/></clipPath></defs></svg>