<svg width="186" height="186" fill="none" xmlns="http://www.w3.org/2000/svg"><path fill="#F85A00" d="M0 0h186v186H0z"/><path fill-rule="evenodd" clip-rule="evenodd" d="M87.112 24a4.602 4.602 0 0 0-4.366 3.143l-5.92 17.753-.057.163a49.319 49.319 0 0 0-6.23 2.573l-.159-.077-16.736-8.366a4.607 4.607 0 0 0-5.316.858l-8.296 8.337a4.6 4.6 0 0 0-.863 5.314l8.369 16.727.076.158a49.284 49.284 0 0 0-2.573 6.229l-.163.057-17.734 5.918A4.601 4.601 0 0 0 24 87.152v11.734a4.597 4.597 0 0 0 3.144 4.365l17.734 5.918.163.057a49.488 49.488 0 0 0 2.573 6.205l-.076.159-8.369 16.731a4.59 4.59 0 0 0 .863 5.309l8.32 8.323a4.609 4.609 0 0 0 5.316.863l16.736-8.352.158-.076a50.2 50.2 0 0 0 6.231 2.573l.058.162 5.919 17.729A4.605 4.605 0 0 0 87.136 162h11.747a4.607 4.607 0 0 0 4.366-3.148l5.92-17.729c.015-.055.034-.11.057-.162a50.564 50.564 0 0 0 6.231-2.573l.158.076 16.713 8.352a4.602 4.602 0 0 0 5.31-.863l8.325-8.323a4.587 4.587 0 0 0 .863-5.309l-8.368-16.731c-.029-.053-.053-.106-.077-.159a50.227 50.227 0 0 0 2.574-6.195c.052-.023.107-.043.163-.057l17.733-5.918A4.603 4.603 0 0 0 162 98.896V87.118a4.607 4.607 0 0 0-3.149-4.365l-17.733-5.917-.163-.058a50.036 50.036 0 0 0-2.574-6.229c0-.052.048-.105.077-.158l8.368-16.732a4.595 4.595 0 0 0-.863-5.313l-8.325-8.323a4.596 4.596 0 0 0-5.31-.834l-16.737 8.366-.158.077a49.6 49.6 0 0 0-6.231-2.573 1.337 1.337 0 0 1-.057-.163l-5.919-17.753A4.605 4.605 0 0 0 98.859 24H87.112ZM75.394 92.998a17.594 17.594 0 0 0 10.867 16.259 17.61 17.61 0 0 0 19.185-3.815 17.593 17.593 0 0 0 3.816-19.18 17.605 17.605 0 0 0-23.003-9.525 17.6 17.6 0 0 0-10.865 16.265v-.004Z" fill="#040d19"/></svg>