<svg width="729" height="358" fill="none" xmlns="http://www.w3.org/2000/svg"><path d="M0 0h729v358H50c-27.614 0-50-22.386-50-50V0Z" fill="#F85A00"/><path fill="#FFBA96" d="M137 238.667h119.333V358H137z"/><path fill="#040d19" d="M614.254 0h119.333v119.333H614.254zM256.334 119.333h119.333v119.333H256.334z"/><path fill="#FFBA96" d="M494.92 119.333h119.333v119.333H494.92zM375.666 0h119.333v119.333H375.666z"/><path fill="#fff" d="M375.666 238.667h119.333V358H375.666z"/><path fill="#040d19" d="M494.92 238.667h119.333V358H494.92z"/><path fill="#FFBA96" d="M137 0h119.333v119.333H137z"/><path fill-rule="evenodd" clip-rule="evenodd" d="M192.889 15.398a2.954 2.954 0 0 0-2.801 2.017l-3.798 11.39-.037.104a31.645 31.645 0 0 0-3.997 1.65l-.102-.049-10.737-5.367a2.957 2.957 0 0 0-3.411.55l-5.322 5.35a2.948 2.948 0 0 0-.554 3.408l5.369 10.732.049.102a31.68 31.68 0 0 0-1.651 3.996l-.104.037-11.378 3.796a2.95 2.95 0 0 0-2.017 2.8v7.53a2.952 2.952 0 0 0 2.017 2.8l11.378 3.796.104.037a31.962 31.962 0 0 0 1.651 3.981l-.049.102-5.369 10.734a2.941 2.941 0 0 0 .554 3.406l5.338 5.34a2.954 2.954 0 0 0 3.41.554l10.738-5.359.101-.049c1.294.64 2.63 1.191 3.998 1.651l.037.105 3.797 11.374a2.958 2.958 0 0 0 2.802 2.02h7.536a2.958 2.958 0 0 0 2.802-2.02l3.797-11.374a.768.768 0 0 1 .037-.105 32.343 32.343 0 0 0 3.998-1.65l.101.048 10.722 5.359a2.955 2.955 0 0 0 3.407-.554l5.342-5.34a2.948 2.948 0 0 0 .553-3.406l-5.369-10.734a1.543 1.543 0 0 1-.049-.102 32.255 32.255 0 0 0 1.651-3.975.718.718 0 0 1 .105-.037l11.377-3.796a2.952 2.952 0 0 0 2.021-2.8v-7.557a2.956 2.956 0 0 0-2.021-2.8l-11.377-3.797-.105-.037a32.041 32.041 0 0 0-1.651-3.996c0-.034.031-.068.049-.102l5.369-10.734a2.953 2.953 0 0 0-.553-3.41l-5.342-5.34a2.944 2.944 0 0 0-3.407-.534l-10.737 5.367-.102.05a31.809 31.809 0 0 0-3.997-1.651.782.782 0 0 1-.037-.105l-3.798-11.39a2.948 2.948 0 0 0-2.801-2.016h-7.537Zm-7.518 44.267a11.289 11.289 0 0 0 6.972 10.432 11.299 11.299 0 0 0 12.309-2.448 11.294 11.294 0 1 0-19.281-7.981v-.003Z" fill="#040d19"/><path d="M433.619 70.652h-33.54c-2.344 0-3.616-2.736-2.102-4.52l39.984-47.116c.885-1.042 2.587-.298 2.417 1.057l-3.57 28.608h33.54c2.344 0 3.616 2.736 2.101 4.52l-39.984 47.116c-.884 1.042-2.586.298-2.417-1.057l3.571-28.608Z" fill="#040d19"/><path d="M359.7 175.962a6.107 6.107 0 0 1 0 6.076l-19.229 33.381a6.068 6.068 0 0 1-5.245 3.038h-38.452a6.057 6.057 0 0 1-5.246-3.038L272.3 182.038a6.098 6.098 0 0 1 0-6.076l19.228-33.381a6.06 6.06 0 0 1 2.216-2.224 6.039 6.039 0 0 1 3.03-.814h38.434a6.053 6.053 0 0 1 5.246 3.038l19.246 33.381Z" fill="#F85A00"/><path d="M581.462 56.987h17.884a44.599 44.599 0 0 0-11.915-27.77 45.42 45.42 0 0 1-8.73 7.266 91.881 91.881 0 0 1 2.761 20.504ZM578.559 83.422a45.049 45.049 0 0 1 8.59 7.07 44.635 44.635 0 0 0 12.144-27.547h-17.85a91.24 91.24 0 0 1-2.884 20.477ZM574.814 93.895a41.341 41.341 0 0 1-4.683 7.824 44.674 44.674 0 0 0 12.625-7.164 38.958 38.958 0 0 0-6.064-5.192 55.96 55.96 0 0 1-1.878 4.532ZM583.061 25.11a44.76 44.76 0 0 0-12.927-7.427 41.408 41.408 0 0 1 4.683 7.824 52.755 52.755 0 0 1 2.04 4.99 38.62 38.62 0 0 0 6.204-5.387ZM537.813 86.294a49.544 49.544 0 0 0 2.04 5.075c5.225 11.177 11.311 13.049 14.592 13.116h.368c3.281-.067 9.367-1.917 14.592-13.116a52.328 52.328 0 0 0 2.04-5.075 38.893 38.893 0 0 0-33.632 0ZM571.615 33.599a53.285 53.285 0 0 0-2.207-5.555c-5.226-11.178-11.312-13.05-14.592-13.117h-.369c-3.281.067-9.367 1.917-14.592 13.117a52.24 52.24 0 0 0-2.202 5.555 38.863 38.863 0 0 0 33.962 0ZM573.145 80.499a86.189 86.189 0 0 0 2.347-17.543h-41.686a86.4 86.4 0 0 0 2.32 17.515 44.848 44.848 0 0 1 37.036 0l-.017.028ZM533.773 57.016l41.719-.028a86.532 86.532 0 0 0-2.235-17.571 44.84 44.84 0 0 1-37.277 0 86.716 86.716 0 0 0-2.207 17.599ZM534.444 25.518a41.354 41.354 0 0 1 4.683-7.824A44.674 44.674 0 0 0 526.2 25.12a38.624 38.624 0 0 0 6.204 5.399 54.619 54.619 0 0 1 2.04-5.002ZM526.497 94.554a44.655 44.655 0 0 0 12.63 7.187 41.345 41.345 0 0 1-4.683-7.824 57.104 57.104 0 0 1-1.884-4.543 38.948 38.948 0 0 0-6.063 5.18ZM527.815 62.99h-17.844a44.6 44.6 0 0 0 12.138 27.49 45.083 45.083 0 0 1 8.59-7.07 91.332 91.332 0 0 1-2.884-20.42ZM530.576 36.472a45.263 45.263 0 0 1-8.729-7.266 44.607 44.607 0 0 0-11.915 27.832h17.883a91.893 91.893 0 0 1 2.761-20.566Z" fill="#040d19"/><path fill="#FFBA96" d="M614.254 119.333h119.333v119.333H614.254z"/><path fill-rule="evenodd" clip-rule="evenodd" d="m707.775 205.766-23.57-68.868a3.573 3.573 0 0 0-1.298-1.744 3.565 3.565 0 0 0-2.071-.663h-13.831a3.562 3.562 0 0 0-3.369 2.407l-23.57 68.868a3.565 3.565 0 0 1-3.369 2.407h-3.724a3.564 3.564 0 0 0-3.561 3.561v8.211a3.56 3.56 0 0 0 3.561 3.561h81.897a3.56 3.56 0 0 0 3.561-3.561v-8.214a3.56 3.56 0 0 0-3.561-3.561h-3.726a3.56 3.56 0 0 1-3.369-2.404Z" fill="#040d19"/><g clip-path="url(#a)"><path fill="#040d19" d="M733.586 238.667H614.253V358h119.333z"/><path fill="#F85A00" d="m479.801-71.546-27.748 27.748 567.785 567.786 27.749-27.749zM427.389-19.132 399.641 8.616l567.785 567.786 27.749-27.749zM375.748 32.51 348 60.26l567.785 567.785 27.749-27.748zM323.33 84.923l-27.748 27.749 567.785 567.785 27.749-27.748zM271.689 136.566l-27.748 27.748L811.726 732.1l27.749-27.748zM220.049 188.208l-27.748 27.748 567.785 567.786 27.749-27.748zM167.637 240.623l-27.748 27.748 567.785 567.786 27.749-27.748zM115.99 292.265l-27.748 27.748L656.027 887.8l27.749-27.748zM63.578 344.678 35.83 372.426l567.786 567.786 27.748-27.748z"/></g><mask id="b" style="mask-type:alpha" maskUnits="userSpaceOnUse" x="375" y="238" width="120" height="120"><path d="M495 238.667V358H375.667V238.667H495Z" fill="#040d19"/></mask><g mask="url(#b)"><path fill="#040d19" d="M375.92 238.667h119.333V358H375.92z"/><path d="M577.344 295.342 440.885 431.801l-13.645-13.644 136.459-136.459 13.645 13.644ZM454.535 172.523 318.076 308.981l-13.644-13.644 136.459-136.459 13.644 13.645ZM485.644 203.635 349.186 340.094l-13.645-13.644L472 189.991l13.644 13.644ZM516.752 234.746 380.293 371.205l-13.644-13.644 136.459-136.459 13.644 13.644ZM547.867 265.864 411.408 402.323l-13.644-13.645L534.223 252.22l13.644 13.644Z" fill="#FFBA96"/></g><defs><clipPath id="a"><path fill="#fff" transform="matrix(-1 0 0 1 733.586 238.667)" d="M0 0h119.333v119.333H0z"/></clipPath></defs></svg>