<svg width="729" height="358" fill="none" xmlns="http://www.w3.org/2000/svg"><path d="M0 0h729v358H50c-27.614 0-50-22.386-50-50V0Z" fill="#F85A00"/><path fill="#FFBA96" d="M137 238.667h119.333V358H137z"/><path fill="#fff" d="M614.253 0h119.333v119.333H614.253zM256.333 119.333h119.333v119.333H256.333z"/><path fill="#FFBA96" d="M494.92 119.333h119.333v119.333H494.92zM375.667 0H495v119.333H375.667z"/><path fill="#fff" d="M375.667 238.667H495V358H375.667z"/><path fill="#fff" d="M494.92 238.667h119.333V358H494.92z"/><path fill="#FFBA96" d="M137 0h119.333v119.333H137z"/><path fill-rule="evenodd" clip-rule="evenodd" d="M192.889 15.398a2.951 2.951 0 0 0-2.801 2.017l-3.798 11.39-.037.104a31.645 31.645 0 0 0-3.997 1.65l-.102-.049-10.738-5.367a2.953 2.953 0 0 0-3.41.55l-5.322 5.35a2.948 2.948 0 0 0-.554 3.408l5.369 10.732.049.102a31.532 31.532 0 0 0-1.651 3.996l-.105.037-11.377 3.796a2.95 2.95 0 0 0-2.017 2.8v7.53a2.952 2.952 0 0 0 2.017 2.8l11.377 3.796.105.037a31.81 31.81 0 0 0 1.651 3.981l-.049.102-5.369 10.734a2.941 2.941 0 0 0 .554 3.406l5.338 5.34a2.952 2.952 0 0 0 3.41.554l10.738-5.359.101-.049c1.294.64 2.63 1.191 3.998 1.651l.037.105 3.797 11.374a2.958 2.958 0 0 0 2.801 2.02h7.537a2.958 2.958 0 0 0 2.801-2.02l3.798-11.374a.768.768 0 0 1 .037-.105 32.28 32.28 0 0 0 3.997-1.65l.102.048 10.722 5.359a2.953 2.953 0 0 0 3.407-.554l5.342-5.34a2.946 2.946 0 0 0 .553-3.406l-5.369-10.734a1.543 1.543 0 0 1-.049-.102 32.255 32.255 0 0 0 1.651-3.975.718.718 0 0 1 .105-.037l11.377-3.796a2.952 2.952 0 0 0 2.02-2.8v-7.557a2.948 2.948 0 0 0-2.02-2.8l-11.377-3.797-.105-.037a32.041 32.041 0 0 0-1.651-3.996c0-.034.031-.068.049-.102l5.369-10.734a2.953 2.953 0 0 0-.553-3.41l-5.342-5.34a2.947 2.947 0 0 0-3.407-.534L211.16 30.51l-.101.05a31.809 31.809 0 0 0-3.997-1.651.782.782 0 0 1-.037-.105l-3.798-11.39a2.948 2.948 0 0 0-2.801-2.016h-7.537Zm-7.518 44.267a11.289 11.289 0 0 0 6.972 10.432 11.296 11.296 0 0 0 15.399-8.229 11.285 11.285 0 0 0-4.802-11.591 11.296 11.296 0 0 0-17.569 9.391v-.003Z" fill="#fff"/><path d="M433.618 70.652h-33.539c-2.345 0-3.617-2.736-2.102-4.52l39.984-47.116c.884-1.042 2.586-.298 2.417 1.057l-3.57 28.608h33.539c2.345 0 3.617 2.736 2.102 4.52l-39.984 47.116c-.884 1.042-2.586.298-2.417-1.057l3.57-28.608Z" fill="#fff"/><path d="M359.7 175.962a6.107 6.107 0 0 1 0 6.076l-19.229 33.381a6.06 6.06 0 0 1-5.245 3.038h-38.452a6.053 6.053 0 0 1-5.245-3.038L272.3 182.038a6.107 6.107 0 0 1 0-6.076l19.229-33.381a6.053 6.053 0 0 1 5.245-3.038h38.435a6.053 6.053 0 0 1 5.245 3.038l19.246 33.381Z" fill="#F85A00"/><path d="M581.463 56.987h17.884a44.599 44.599 0 0 0-11.915-27.77 45.42 45.42 0 0 1-8.73 7.266 91.823 91.823 0 0 1 2.761 20.504ZM578.56 83.422a45.049 45.049 0 0 1 8.59 7.07 44.635 44.635 0 0 0 12.144-27.547h-17.85a91.24 91.24 0 0 1-2.884 20.477ZM574.816 93.895a41.393 41.393 0 0 1-4.683 7.824 44.674 44.674 0 0 0 12.625-7.164 39.05 39.05 0 0 0-6.064-5.192 56.69 56.69 0 0 1-1.878 4.532ZM583.061 25.11a44.747 44.747 0 0 0-12.927-7.427 41.413 41.413 0 0 1 4.684 7.824 52.49 52.49 0 0 1 2.039 4.99 38.576 38.576 0 0 0 6.204-5.387ZM537.815 86.294a49.766 49.766 0 0 0 2.039 5.075c5.226 11.177 11.312 13.049 14.592 13.116h.369c3.281-.067 9.367-1.917 14.592-13.116a52.328 52.328 0 0 0 2.04-5.075 38.896 38.896 0 0 0-33.632 0ZM571.615 33.599a53.285 53.285 0 0 0-2.207-5.555c-5.226-11.178-11.312-13.05-14.592-13.117h-.369c-3.281.067-9.367 1.917-14.592 13.117a52.453 52.453 0 0 0-2.202 5.555 38.863 38.863 0 0 0 33.962 0ZM573.145 80.499a86.189 86.189 0 0 0 2.347-17.543h-41.685a86.328 86.328 0 0 0 2.319 17.515 44.848 44.848 0 0 1 37.036 0l-.017.028ZM533.773 57.016l41.719-.028a86.461 86.461 0 0 0-2.235-17.571 44.837 44.837 0 0 1-37.276 0 86.718 86.718 0 0 0-2.208 17.599ZM534.445 25.518a41.41 41.41 0 0 1 4.684-7.824 44.661 44.661 0 0 0-12.927 7.427 38.581 38.581 0 0 0 6.204 5.399 54.902 54.902 0 0 1 2.039-5.002ZM526.498 94.554a44.66 44.66 0 0 0 12.631 7.187 41.402 41.402 0 0 1-4.684-7.824 57.102 57.102 0 0 1-1.883-4.543 39.002 39.002 0 0 0-6.064 5.18ZM527.817 62.99h-17.845a44.602 44.602 0 0 0 12.139 27.49 45.046 45.046 0 0 1 8.589-7.07 91.273 91.273 0 0 1-2.883-20.42ZM530.577 36.472a45.263 45.263 0 0 1-8.729-7.266 44.607 44.607 0 0 0-11.915 27.832h17.883a91.893 91.893 0 0 1 2.761-20.566Z" fill="#fff"/><path fill="#FFBA96" d="M614.253 119.333h119.333v119.333H614.253z"/><path fill-rule="evenodd" clip-rule="evenodd" d="m707.774 205.766-23.57-68.868a3.562 3.562 0 0 0-3.369-2.407h-13.831a3.562 3.562 0 0 0-3.369 2.407l-23.57 68.868a3.565 3.565 0 0 1-3.369 2.407h-3.724a3.564 3.564 0 0 0-3.561 3.561v8.211a3.56 3.56 0 0 0 3.561 3.561h81.897a3.561 3.561 0 0 0 3.561-3.561v-8.214a3.558 3.558 0 0 0-3.561-3.561h-3.726a3.558 3.558 0 0 1-3.369-2.404Z" fill="#fff"/><g clip-path="url(#a)"><path fill="#fff" d="M733.587 238.667H614.254V358h119.333z"/><path fill="#F85A00" d="m479.802-71.546-27.748 27.748 567.785 567.786 27.749-27.749zM427.39-19.132 399.642 8.616l567.785 567.786 27.749-27.749zM375.748 32.51 348 60.26l567.785 567.785 27.749-27.748zM323.332 84.923l-27.748 27.749 567.785 567.785 27.749-27.748zM271.69 136.566l-27.748 27.748L811.727 732.1l27.749-27.748zM220.049 188.208l-27.748 27.748 567.785 567.786 27.749-27.748zM167.637 240.623l-27.748 27.748 567.785 567.786 27.749-27.748zM115.991 292.265l-27.748 27.748L656.028 887.8l27.749-27.748zM63.58 344.678l-27.75 27.748 567.787 567.786 27.748-27.748z"/></g><mask id="b" style="mask-type:alpha" maskUnits="userSpaceOnUse" x="375" y="238" width="120" height="120"><path d="M495 238.667V358H375.667V238.667H495Z" fill="#fff"/></mask><g mask="url(#b)" fill="#FFBA96"><path d="M577.344 295.342 440.885 431.801l-13.644-13.644L563.7 281.698l13.644 13.644ZM454.535 172.523 318.076 308.981l-13.644-13.644 136.459-136.459 13.644 13.645ZM485.645 203.635 349.186 340.094l-13.644-13.644L472 189.991l13.645 13.644ZM516.752 234.746 380.294 371.205l-13.645-13.644 136.459-136.459 13.644 13.644ZM547.867 265.864 411.408 402.323l-13.645-13.645L534.222 252.22l13.645 13.644Z"/></g><defs><clipPath id="a"><path fill="#fff" transform="matrix(-1 0 0 1 733.587 238.667)" d="M0 0h119.333v119.333H0z"/></clipPath></defs></svg>