<?xml version="1.0" standalone="no"?>
<!DOCTYPE svg PUBLIC "-//W3C//DTD SVG 20010904//EN"
 "http://www.w3.org/TR/2001/REC-SVG-20010904/DTD/svg10.dtd">
<svg version="1.0" xmlns="http://www.w3.org/2000/svg"
 width="500.000000pt" height="500.000000pt" viewBox="0 0 500.000000 500.000000"
 preserveAspectRatio="xMidYMid meet">
<metadata>
Created by potrace 1.14, written by Peter Selinger 2001-2017
</metadata>
<g transform="translate(0.000000,500.000000) scale(0.100000,-0.100000)"
fill="#000000" stroke="none">
<path d="M1855 4057 l0 -942 -895 -2 c-492 -1 -910 -2 -927 -2 l-33 -1 0 -733
0 -733 688 0 c378 1 709 -2 735 -6 130 -19 243 -126 272 -258 5 -19 9 -336 9
-705 l1 -670 718 -3 717 -2 1 22 c0 13 1 438 1 945 l1 921 901 1 c496 0 913 0
929 0 l27 1 0 733 0 734 -707 0 c-390 0 -721 3 -736 6 -126 25 -235 145 -254
279 -5 29 -8 347 -7 706 l0 652 -720 0 -721 0 0 -943z"/>
</g>
</svg>
